<svg width="100" height="100" viewBox="0 0 100 100" xmlns="http://www.w3.org/2000/svg">
  <rect width="100" height="100" rx="22" fill="#10A37F"/>
  <path fill="white" d="M72.2,46.1c0.1-0.9,0.2-1.8,0.2-2.8c0-5-2-9.6-5.2-13.1c-1.3-3.6-3.8-6.6-7.2-8.6c-0.8-0.5-1.7-0.9-2.6-1.2C54.8,18.9,52.4,18.8,50,19c-2.4-0.3-4.8-0.1-7.1,0.5c-3.7,1.1-6.8,3.3-9.1,6.4c-3.1-1.1-6.5-1.1-9.6-0.1c-1.6,0.5-3,1.3-4.3,2.3c-2,1.6-3.6,3.6-4.6,5.9C14.1,36.5,13.8,39,14,41.4c-0.1,0.9-0.2,1.8-0.2,2.8c0,5,2,9.6,5.2,13.1c1.3,3.6,3.8,6.6,7.2,8.6c4.9,2.8,10.6,3.2,15.8,1.3c2.4,1.8,5.2,2.9,8.2,3.2c5.6,0.6,11.1-1.4,15-5.3c1.6-0.5,3-1.3,4.3-2.3c3.3-2.6,5.2-6.6,5.2-10.8C74.9,49.8,73.9,47.8,72.2,46.1z M65,48.7l-4.2,2.4l0.3-4.8l0.1-1.3c1.6-0.6,3-1.7,3.9-3.2C65.6,44.1,65.7,46.4,65,48.7z M58.4,26.9c2.1,0.4,4,1.4,5.4,3l-4.2,2.4l-3-5.2C57.2,27,57.8,26.9,58.4,26.9z M41.6,26.9c1.9,0,3.7,0.5,5.3,1.4l-3,5.2L39.7,31C40.1,29.3,40.7,27.7,41.6,26.9z M28.7,35.3c0.9-1.5,2.3-2.7,3.9-3.2l0.1,1.3l0.3,4.8L28.7,35.8C28.5,35.6,28.6,35.5,28.7,35.3z M29,62.8l4.2-2.4l-0.3,4.8l-0.1,1.3c-1.6,0.6-3,1.7-3.9,3.2C28.4,67.4,28.3,65.2,29,62.8z M41.6,83.1c-2.1-0.4-4-1.4-5.4-3l4.2-2.4l3,5.2C42.8,83,42.2,83.1,41.6,83.1z M58.4,83.1c-1.9,0-3.7-0.5-5.3-1.4l3-5.2l4.2,2.4C60,80.7,59.3,82.3,58.4,83.1z M71.3,74.7c-0.9,1.5-2.3,2.7-3.9,3.2l-0.1-1.3l-0.3-4.8l4.2,2.4C71.5,74.4,71.4,74.6,71.3,74.7z M48.6,60.8l-0.3-5.3L45,53.5l-4.5,2.6L48.6,60.8z M51.4,60.8l8.2-4.7l-4.5-2.6l-3.3,1.9L51.4,60.8z M48.6,49.2l3.3,1.9l3.3-1.9l-3.3-1.9L48.6,49.2z M45,51.6l-3.3-1.9l0.3-5.3l8.2,4.7L45,51.6z M51.4,39.2l0.3,5.3L55,46.5l4.5-2.6L51.4,39.2z M50,47.3l-4.5,2.6l4.5,2.6l4.5-2.6L50,47.3z"/>
</svg>
